<?xml version="1.0" encoding="UTF-8" standalone="no"?>
<!DOCTYPE svg PUBLIC "-//W3C//DTD SVG 1.1//EN" "http://www.w3.org/Graphics/SVG/1.1/DTD/svg11.dtd">
<svg width="100%" height="100%" viewBox="0 0 800 800" version="1.1" xmlns="http://www.w3.org/2000/svg" xmlns:xlink="http://www.w3.org/1999/xlink" xml:space="preserve" xmlns:serif="http://www.serif.com/" style="fill-rule:evenodd;clip-rule:evenodd;stroke-linejoin:round;stroke-miterlimit:2;">
    <g id="eraser" transform="matrix(-1,-4.35337e-05,4.35337e-05,-1,6251.69,4196.92)">
        <g id="Group_19">
            <path id="Path_57" d="M5464.82,3845.74C5449.18,3859.48 5447.55,3883.63 5461.19,3899.36L5697.64,4169.99C5711.38,4185.64 5735.54,4187.27 5751.27,4173.61L6238.88,3747.62C6254.54,3733.89 6256.18,3709.73 6242.53,3694L6006.08,3423.35C5992.33,3407.71 5968.18,3406.09 5952.46,3419.75L5464.82,3845.74Z" style="fill:rgb(245,59,51);fill-rule:nonzero;"/>
        </g>
        <g id="Group_21">
            <g id="Group_20">
                <path id="Path_58" d="M5464.82,3845.74C5449.18,3859.48 5447.55,3883.63 5461.19,3899.36L5697.64,4169.99C5711.38,4185.64 5735.54,4187.27 5751.27,4173.61L6238.88,3747.62C6254.54,3733.89 6256.18,3709.73 6242.53,3694L6006.08,3423.35C5992.33,3407.71 5968.18,3406.09 5952.46,3419.75L5464.82,3845.74Z" style="fill:rgb(242,122,116);fill-rule:nonzero;"/>
            </g>
        </g>
        <path id="Path_59" d="M6242.53,3694L6006.08,3423.35C5992.33,3407.71 5968.18,3406.09 5952.46,3419.75L5942.92,3428.06L6229.38,3755.93L6238.88,3747.62C6254.54,3733.89 6256.18,3709.73 6242.53,3694Z" style="fill:rgb(245,81,98);fill-rule:nonzero;"/>
        <path id="Path_60" d="M5708.64,3632.74L5464.82,3845.74C5449.18,3859.49 5447.55,3883.64 5461.19,3899.37L5697.64,4170C5711.38,4185.65 5735.54,4187.28 5751.27,4173.62L5995.09,3960.64L5708.64,3632.74Z" style="fill:rgb(77,152,213);fill-rule:nonzero;"/>
        <path id="Path_61" d="M5461.19,3899.37L5697.64,4170C5711.38,4185.65 5735.54,4187.28 5751.27,4173.62L5760.81,4165.31L5474.36,3837.43L5464.82,3845.74C5449.18,3859.48 5447.54,3883.64 5461.19,3899.37Z" style="fill:rgb(51,135,193);fill-rule:nonzero;"/>
        <g id="Group_23">
            <g id="Group_22">
                <path id="Path_62" d="M5641.96,3768.09C5645.36,3772 5644.97,3778.01 5641.08,3781.45L5544.04,3866.21C5540.12,3869.62 5534.09,3869.21 5530.67,3865.29C5529.16,3863.57 5528.33,3861.36 5528.33,3859.07C5528.33,3856.34 5529.51,3853.73 5531.57,3851.94L5628.59,3767.22C5632.51,3763.8 5638.54,3764.22 5641.96,3768.13L5641.96,3768.09Z" style="fill:rgb(164,201,212);fill-rule:nonzero;"/>
                <path id="Path_63" d="M5728.5,3692.46C5725.08,3688.56 5719.05,3688.14 5715.13,3691.55L5663.44,3736.74C5661.37,3738.54 5660.19,3741.15 5660.19,3743.88C5660.19,3749.08 5664.47,3753.36 5669.66,3753.36C5671.95,3753.36 5674.17,3752.53 5675.89,3751.02L5727.63,3705.84C5731.53,3702.4 5731.92,3696.37 5728.5,3692.46Z" style="fill:rgb(164,201,212);fill-rule:nonzero;"/>
            </g>
        </g>
    </g>
</svg>
